<svg xmlns="http://www.w3.org/2000/svg" width="400" height="400" viewBox="0 0 400 400">
  <metadata>    <?xpacket begin="﻿" id="W5M0MpCehiHzreSzNTczkc9d"?>
    <x:xmpmeta xmlns:x="adobe:ns:meta/" x:xmptk="Adobe XMP Core 5.6-c142 79.160924, 2017/07/13-01:06:39        ">
      <rdf:RDF xmlns:rdf="http://www.w3.org/1999/02/22-rdf-syntax-ns#">
        <rdf:Description rdf:about=""/>
      </rdf:RDF>
    </x:xmpmeta>





















    <?xpacket end="w"?></metadata>
  <defs>
    <style>
      .cls-1 {
        fill: #fff;
      }
    </style>
  </defs>
  <path id="Mug" class="cls-1" d="M322.761,146.206a32.15,32.15,0,0,1-32.142,32.141H279.9V114.064h10.714A32.15,32.15,0,0,1,322.761,146.206ZM44.2,274.772a42.939,42.939,0,0,0,42.855,42.856H301.333a42.938,42.938,0,0,0,42.855-42.856H44.2ZM354.9,146.206a64.3,64.3,0,0,0-64.283-64.283H97.769A10.789,10.789,0,0,0,87.056,92.637v123.21a37.652,37.652,0,0,0,37.5,37.5H242.407a37.652,37.652,0,0,0,37.5-37.5v-5.357h10.714A64.3,64.3,0,0,0,354.9,146.206Z"/>
</svg>
