<svg id="Dark" xmlns="http://www.w3.org/2000/svg" width="1200" height="600" viewBox="0 0 1200 600"><defs><style>.cls-2{fill:#fff}</style></defs><path id="Hot_Chocolate" data-name="Hot Chocolate" class="cls-2" d="M320 502h15.84l8.8-41.36h16.17l-8.8 41.36h15.84l17.49-82.28H369.5l-7.04 32.78h-16.17l7.04-32.78q-2.862-.219-4.4-.22a45.771 45.771 0 00-32.835 14.9q-5.775 6.657-5.775 13.7 0 5.721 2.915 8.195t8.855 2.475a9.7 9.7 0 00-.77-1.815 14.407 14.407 0 01-.77-5.665 26.6 26.6 0 014.015-14.85 24.411 24.411 0 0111.385-9.24zm78.209.44a21 21 0 0012.43-4.07 29.693 29.693 0 009.35-11.55 49.828 49.828 0 004.51-17.49 42.993 42.993 0 0011.165-3.355 26.321 26.321 0 008.305-5.775l-.99-2.97a41.775 41.775 0 01-8.58 4.675 22.611 22.611 0 01-8.36 1.925 4.394 4.394 0 01-1.21-.11v-.11q0-17.6-14.08-17.6-10.341 0-17.16 6.655a39.262 39.262 0 00-9.9 15.785 52.487 52.487 0 00-3.08 16.61q0 9.021 4.73 13.2t12.87 4.18zm4.4-9.9q-3.192 0-4.4-1.815t-1.21-7.1a48.357 48.357 0 012.09-12.98 46.642 46.642 0 015.5-12.65q3.408-5.28 7.04-5.28a3.374 3.374 0 013.08 1.375 11.349 11.349 0 011.1 5q-3.411 1.431-3.41 5.94 0 3.96 2.97 4.62a53.277 53.277 0 01-2.86 11.6 27.08 27.08 0 01-4.62 8.25q-2.64 3.027-5.28 3.025zm38.17 10.12a10.663 10.663 0 006.49-2.2q2.97-2.2 5.17-8.58a8.89 8.89 0 01-2.86.33q-3.852 0-3.85-3.96a18.332 18.332 0 01.55-3.85l7.04-33h6.6l.88-4.4h-6.6q1.869-9.348 2.64-12.43.108-.768 1.1-4.95l-16.28 2.2-3.3 15.18h-3.63l-.88 4.4h3.63l-7.04 33a26.829 26.829 0 00-.66 5.83 14.121 14.121 0 002.695 9.02q2.694 3.411 8.305 3.41zm70.068 1.1a36.46 36.46 0 0023.21-8.91 29.067 29.067 0 008.14-11.55l-2.53-1.1a27.779 27.779 0 01-9.46 8.14 25.588 25.588 0 01-11.99 2.86q-7.482 0-10.34-4.4t-2.86-12.76a89.917 89.917 0 013.245-23.32 68.343 68.343 0 018.525-20.075q5.28-7.974 11.11-7.975 3.519 0 5.115 1.87a7.207 7.207 0 011.6 4.84 13.223 13.223 0 01-1.54 6.16 8.647 8.647 0 01-3.52 3.96 7.628 7.628 0 006.27 2.86 6.6 6.6 0 005.83-2.695 12.86 12.86 0 001.87-7.425q0-7.479-5.06-11.11t-13.31-3.63a28.337 28.337 0 00-21.945 9.515 57.481 57.481 0 00-12.54 22.825 88.57 88.57 0 00-3.9 24.86q0 14.52 5.83 20.79t18.26 6.27zm68.2-1.1a17.878 17.878 0 0011.055-4.125q5.334-4.125 9.4-16.225h-4.62a27.735 27.735 0 01-3.96 7.315 6.534 6.534 0 01-5.28 2.365 4.18 4.18 0 01-3.41-1.21 5.245 5.245 0 01-.99-3.41 25.227 25.227 0 01.715-5.115q.714-3.243 1.6-6.655 1.428-5.61 2.2-9.515a37.052 37.052 0 00.77-7.095q0-6.27-3.3-9.35t-8.91-3.08q-7.371 0-12.87 6.16l5.94-27.72-16.28 2.2-15.951 74.8H551l7.48-35.31a21.57 21.57 0 013.52-7.315 6.354 6.354 0 015.06-2.805q3.96 0 3.96 5.61a31.561 31.561 0 01-.77 6.05q-.771 3.741-1.65 7.59-.222.771-.825 3.52t-1.155 5.665a28.375 28.375 0 00-.55 5.225 12.947 12.947 0 003.135 8.855q3.135 3.576 9.845 3.575zm31.9-.22a21 21 0 0012.43-4.07 29.693 29.693 0 009.35-11.55 49.828 49.828 0 004.51-17.49 42.993 42.993 0 0011.165-3.355 26.321 26.321 0 008.305-5.775l-.99-2.97a41.775 41.775 0 01-8.58 4.675 22.611 22.611 0 01-8.36 1.925 4.394 4.394 0 01-1.21-.11v-.11q0-17.6-14.08-17.6-10.341 0-17.16 6.655a39.262 39.262 0 00-9.9 15.785 52.487 52.487 0 00-3.08 16.61q0 9.021 4.73 13.2t12.87 4.18zm4.4-9.9q-3.192 0-4.4-1.815t-1.21-7.1a48.357 48.357 0 012.09-12.98 46.642 46.642 0 015.5-12.65q3.408-5.28 7.04-5.28a3.374 3.374 0 013.08 1.375 11.349 11.349 0 011.1 5q-3.411 1.431-3.41 5.94 0 3.96 2.97 4.62a53.277 53.277 0 01-2.86 11.6 27.08 27.08 0 01-4.62 8.25q-2.64 3.027-5.28 3.025zm43.553 10.12q18.039 0 30.25-20.35h-3.74a49.332 49.332 0 01-9.295 8.36 18.271 18.271 0 01-10.175 2.75q-4.18 0-6.05-1.925t-1.87-7.315a53.457 53.457 0 012.09-13.86 50.2 50.2 0 015.39-13.09q3.3-5.388 6.6-5.39a2.559 2.559 0 012.31 1.21 6.114 6.114 0 01.77 3.3 19.262 19.262 0 01-1.32 6.49 6.949 6.949 0 003.85 1.32 5.107 5.107 0 004.18-2.09 9.383 9.383 0 001.65-5.94 9.944 9.944 0 00-2.8-7.26q-2.805-2.859-9.405-2.86-10.23 0-16.885 6.655a39.6 39.6 0 00-9.68 15.785 53.586 53.586 0 00-3.025 16.72q0 9.021 4.51 13.255t12.65 4.235zm42.569-.22a21 21 0 0012.43-4.07 29.693 29.693 0 009.35-11.55 49.828 49.828 0 004.51-17.49 42.993 42.993 0 0011.165-3.355 26.321 26.321 0 008.3-5.775l-.99-2.97a41.775 41.775 0 01-8.58 4.675 22.611 22.611 0 01-8.36 1.925 4.394 4.394 0 01-1.21-.11v-.11q0-17.6-14.08-17.6-10.341 0-17.16 6.655a39.262 39.262 0 00-9.9 15.785 52.487 52.487 0 00-3.08 16.61q0 9.021 4.73 13.2t12.87 4.18zm4.4-9.9q-3.192 0-4.4-1.815t-1.21-7.1a48.357 48.357 0 012.09-12.98 46.642 46.642 0 015.5-12.65q3.408-5.28 7.04-5.28a3.374 3.374 0 013.08 1.375 11.349 11.349 0 011.1 5q-3.411 1.431-3.41 5.94 0 3.96 2.97 4.62a53.277 53.277 0 01-2.86 11.6 27.08 27.08 0 01-4.62 8.25q-2.64 3.027-5.28 3.025zm38.719 10.12a22.779 22.779 0 0012.65-4.235q6.38-4.233 10.45-16.115h-4.62a15.406 15.406 0 01-3.96 6.985 8.371 8.371 0 01-5.94 2.695 5.15 5.15 0 01-3.465-.935 4.031 4.031 0 01-1.045-3.135 13.633 13.633 0 01.44-3.52l12.65-59.4-16.28 2.2-11.768 55.11a38.217 38.217 0 00-.88 7.15q0 6.6 3.245 9.9a11.422 11.422 0 008.525 3.3zm31.68 0a15.513 15.513 0 009.295-2.805 30.738 30.738 0 007.1-7.315 11.568 11.568 0 003.355 7.535 10.521 10.521 0 007.425 2.585 20.758 20.758 0 0012.045-4.235q5.994-4.233 10.065-16.115h-4.62a21.555 21.555 0 01-3.575 7.48 6.643 6.643 0 01-5.335 2.86q-4.512 0-4.51-4.73a13.589 13.589 0 01.44-3.52l7.92-37.4h-15.84l-1.21 5.83v-.77a4.751 4.751 0 00-2.2-4.07q-2.2-1.539-6.71-1.54a21.328 21.328 0 00-15.345 6.215 39.386 39.386 0 00-9.68 15.18 50.285 50.285 0 00-3.245 17.1q0 9.132 4.18 13.42a13.99 13.99 0 0010.45 4.29zm7.15-10.67a5.4 5.4 0 01-3.9-1.54q-1.6-1.539-1.6-7.04a48.736 48.736 0 011.98-12.705 40.48 40.48 0 015.5-12.32q3.519-5.115 7.92-5.115a4.107 4.107 0 013.41 1.375 4.477 4.477 0 011.1 2.805l-5.28 24.86a13.566 13.566 0 01-3.685 7.095 7.943 7.943 0 01-5.445 2.585zm48.4 10.67a22.782 22.782 0 0012.65-4.235q6.378-4.233 10.45-16.115H850.3a15.425 15.425 0 01-3.96 6.985 8.375 8.375 0 01-5.94 2.695 5.15 5.15 0 01-3.465-.935 4.027 4.027 0 01-1.045-3.135 13.589 13.589 0 01.44-3.52l7.04-33h6.6l.88-4.4h-6.6l3.74-17.38-16.28 2.2-3.3 15.18h-3.63l-.88 4.4h3.63l-6.6 30.91a38.217 38.217 0 00-.88 7.15q0 6.6 3.245 9.9a11.42 11.42 0 008.525 3.3zm33.989 0q16.061 0 19.031-16.28a26.633 26.633 0 01-6.38 4.18 15.63 15.63 0 01-6.6 1.65q-6.821 0-6.819-9.13 0-.879.22-3.3a30.182 30.182 0 0012.43-3.575 25.961 25.961 0 009.349-8.305 19.7 19.7 0 003.52-11.33q0-10.56-12.1-10.56-10.341 0-17.05 6.655a38.827 38.827 0 00-9.681 15.785 54.453 54.453 0 00-2.969 16.72q0 9.021 4.509 13.255t12.54 4.235zm.221-28.16a58.348 58.348 0 015.665-15.675q3.793-6.984 7.644-6.985 2.75 0 2.75 4.51a17.766 17.766 0 01-2.254 8.635 19.987 19.987 0 01-5.941 6.765 13.906 13.906 0 01-7.864 2.75z"/><path id="Mug" class="cls-2" d="M658.2 275.2a15 15 0 01-15 15h-5v-30h5a15 15 0 0115 15zm-130 60a20.038 20.038 0 0020 20h100a20.038 20.038 0 0020-20h-140zm145-60a30.008 30.008 0 00-30-30h-90a5.036 5.036 0 00-5 5v57.5a17.572 17.572 0 0017.5 17.5h55a17.572 17.572 0 0017.5-17.5v-2.5h5a30.007 30.007 0 0030-30z"/></svg>