<svg width="456" height="640" viewBox="0 0 342 480" xmlns="http://www.w3.org/2000/svg"><path d="M68.37.96c21-.26 42-.08 63-.09.05 6.57.15 13.14-.09 19.71-14.55-.1-29.09 0-43.63.09-.1 9.54-.29 19.08-.2 28.62 14.6.09 29.21.23 43.81.17.17 5.4.11 10.82-.05 16.23-20.94-.14-41.88-.08-62.82-.06.05-21.56.09-43.11-.02-64.67zm70.49-.07c21.26-.04 42.52-.17 63.79.07-.08 6.21-.02 12.41-.02 18.62-15.47-.05-30.95.02-46.42.2.02 2.44.02 4.88 0 7.32 15.45.25 30.89.28 46.33.37.06 12.73.03 25.45.11 38.17-21.27-.04-42.54-.02-63.81.08-.11-5.14-.12-10.27.03-15.41 14.74.04 29.49.06 44.23-.06.09-3.31.13-6.63.12-9.94-14.81 0-29.63.05-44.44-.05 0-13.12 0-26.25.08-39.37zm70.91.11h63.67c.09 6.24.18 12.48-.02 18.71-15.54-.01-31.08.08-46.62.11.04 2.55.1 5.1.23 7.65 15.45-.07 30.9.12 46.34.28.14 12.67.24 25.34.06 38.01-21.27-.06-42.54-.06-63.81.04-.13-5.12-.17-10.26.05-15.38 14.71.11 29.43.09 44.15-.05.04-3.32.11-6.64.08-9.95-14.77.14-29.55.06-44.33.01 0-13.14.1-26.29.2-39.43z"/><path fill="#0170ba" d="M0 92.46c113.92-.01 227.83-.02 341.75 0-6.27 70.85-12.44 141.7-18.97 212.53-3.88 45.27-7.88 90.54-12.1 135.78-24.31 6.44-48.38 13.78-72.68 20.25-22.32 6.55-44.82 12.48-67.15 18.98h-.66c-21.25-6.32-42.71-11.88-63.96-18.2-25.08-6.76-49.94-14.3-75.03-21.03-3.27-33.91-6.22-67.84-9.13-101.77-5.49-62.69-11.46-125.34-16.74-188.04C3.5 132.09 2.19 113.16 0 94.33v-1.87m171.41 27.95c-.24 13.61.18 27.23-.24 40.83-39.08-.14-78.17-.03-117.25.01.67 13.21 2.44 26.33 4.26 39.43 36.36 1.35 72.77-.05 109.13 1.04-31.81 14.27-64.01 27.71-95.96 41.68-2.74 1.22-5.67 2.14-8.12 3.92.27 14.51 2.61 28.94 3.64 43.42 19.38-.07 38.75-.38 58.13-.41 15.53-.08 31.07.23 46.6-.11-.74 23.86.23 47.75-.5 71.61-10.45-1.55-20.77-3.88-31.18-5.73-8.21-1.79-16.62-2.72-24.71-5.07-1.15-11.45-1.95-22.94-2.97-34.4-2.34-.72-4.82-.65-7.24-.69-11.74.07-23.49-.04-35.24.14 1.15 22.03 3.13 44.03 6.5 65.85 11.58 3.02 23.18 5.98 34.74 9.13 17.71 4.82 35.64 8.83 53.38 13.57 2.11.45 4.24 1.23 6.43 1.05 1.18 14.49.27 29.07.49 43.6 4.09-.66 8.11-1.67 12.06-2.89 33.58-9.12 67.12-18.41 100.68-27.62 1.67-13.2 2.45-26.49 3.77-39.72 3.49-40.22 7.01-80.44 10.67-120.65 4.29-46 8-92.05 12.32-138.05-46.47.04-92.93-.09-139.39.06z"/><g fill="#29a9df"><path d="M171.41 120.41c46.46-.15 92.92-.02 139.39-.06-4.32 46-8.03 92.05-12.32 138.05-3.66 40.21-7.18 80.43-10.67 120.65-1.32 13.23-2.1 26.52-3.77 39.72-33.56 9.21-67.1 18.5-100.68 27.62-3.95 1.22-7.97 2.23-12.06 2.89-.22-14.53.69-29.11-.49-43.6l1.21-.24c31.23-7.84 62.25-16.47 93.41-24.59 3.94-44.2 8.31-88.38 11.08-132.67-26.5.14-53.01.06-79.51.17-3.86.02-7.72 0-11.56-.28 14.26-7.34 29.26-13.16 43.9-19.71 14.05-6.37 28.27-12.34 42.37-18.59 2.72-1.25 5.62-2.29 8.01-4.15.94-3.45.89-7.06 1.26-10.59.81-11.2 2.25-22.34 2.79-33.55-37.53-.3-75.06-.04-112.6-.24.42-13.6 0-27.22.24-40.83z"/><path d="M171.6 290.22c18.12-.31 36.25.18 54.38.06-1.01 18.53-2.55 37.03-3.51 55.56-11.11 3.63-22.39 6.7-33.59 10.06-5.97 1.82-12.1 3.26-17.78 5.93.73-23.86-.24-47.75.5-71.61z"/></g><path d="M53.92 161.25c39.08-.04 78.17-.15 117.25-.01.51 43-.13 86 .43 128.98-15.53.34-31.07.03-46.6.11-19.38.03-38.75.34-58.13.41-1.03-14.48-3.37-28.91-3.64-43.42 2.45-1.78 5.38-2.7 8.12-3.92 31.95-13.97 64.15-27.41 95.96-41.68-36.36-1.09-72.77.31-109.13-1.04-1.82-13.1-3.59-26.22-4.26-39.43zm15.84 154.83c11.75-.18 23.5-.07 35.24-.14 2.42.04 4.9-.03 7.24.69 1.02 11.46 1.82 22.95 2.97 34.4 8.09 2.35 16.5 3.28 24.71 5.07 10.41 1.85 20.73 4.18 31.18 5.73 1 14.52-.75 29.14.92 43.61l-1.21.24c-2.19.18-4.32-.6-6.43-1.05-17.74-4.74-35.67-8.75-53.38-13.57-11.56-3.15-23.16-6.11-34.74-9.13-3.37-21.82-5.35-43.82-6.5-65.85z" fill="#cfcfcf"/><path fill="#fff" d="M171.17 161.24c37.54.2 75.07-.06 112.6.24-.54 11.21-1.98 22.35-2.79 33.55-.37 3.53-.32 7.14-1.26 10.59-2.39 1.86-5.29 2.9-8.01 4.15-14.1 6.25-28.32 12.22-42.37 18.59-14.64 6.55-29.64 12.37-43.9 19.71 3.84.28 7.7.3 11.56.28 26.5-.11 53.01-.03 79.51-.17-2.77 44.29-7.14 88.47-11.08 132.67-31.16 8.12-62.18 16.75-93.41 24.59-1.67-14.47.08-29.09-.92-43.61 5.68-2.67 11.81-4.11 17.78-5.93 11.2-3.36 22.48-6.43 33.59-10.06.96-18.53 2.5-37.03 3.51-55.56-18.13.12-36.26-.37-54.38-.06-.56-42.98.08-85.98-.43-128.98z"/></svg>