<svg xmlns="http://www.w3.org/2000/svg" width="400" height="400" viewBox="0 0 400 400"><path d="M322.761 146.206a32.15 32.15 0 01-32.142 32.141H279.9v-64.283h10.714a32.15 32.15 0 0132.147 32.142zM44.2 274.772a42.939 42.939 0 0042.855 42.856h214.278a42.938 42.938 0 0042.855-42.856H44.2zm310.7-128.566a64.3 64.3 0 00-64.283-64.283H97.769a10.789 10.789 0 00-10.713 10.714v123.21a37.652 37.652 0 0037.5 37.5h117.851a37.652 37.652 0 0037.5-37.5v-5.357h10.714a64.3 64.3 0 0064.279-64.284z" fill="#fff"/></svg>